<?xml version="1.0" standalone="no"?>
<!DOCTYPE svg PUBLIC "-//W3C//DTD SVG 20010904//EN"
 "http://www.w3.org/TR/2001/REC-SVG-20010904/DTD/svg10.dtd">
<svg version="1.0" xmlns="http://www.w3.org/2000/svg"
 width="128.000000pt" height="128.000000pt" viewBox="0 0 128.000000 128.000000"
 preserveAspectRatio="xMidYMid meet">

<g transform="translate(0.000000,128.000000) scale(0.100000,-0.100000)"
fill="#bbbcbd" stroke="none">
<path d="M253 1158 c-6 -7 -43 -75 -83 -152 -76 -144 -77 -155 -23 -156 20 0
18 -6 -28 -93 -27 -52 -46 -97 -42 -100 3 -4 17 -7 30 -7 12 0 23 -5 23 -11 0
-6 -22 -52 -50 -103 -27 -51 -47 -96 -43 -99 3 -4 48 -7 100 -7 76 0 93 3 93
15 0 12 -14 15 -70 15 -45 0 -70 4 -70 11 0 6 22 53 50 104 27 50 47 95 43 98
-3 4 -19 7 -36 7 l-29 0 51 96 c28 52 49 99 46 105 -4 5 -20 9 -36 9 l-30 0
58 110 c32 60 60 110 63 110 3 0 31 -50 63 -110 l58 -110 -30 0 c-16 0 -33 -4
-36 -10 -3 -5 17 -52 45 -105 l52 -95 -31 0 c-40 0 -44 -10 -20 -49 20 -33 45
-33 36 0 -4 15 0 19 22 19 15 0 31 3 34 7 4 3 -15 48 -43 100 -47 88 -49 93
-27 93 55 1 53 11 -29 166 -44 81 -84 149 -90 151 -6 2 -16 -2 -21 -9z"/>
<path d="M952 1153 c-117 -57 -116 -231 2 -287 19 -9 51 -16 73 -16 48 0 118
39 118 65 0 17 -6 19 -43 16 -58 -4 -92 26 -92 79 0 53 34 83 92 79 37 -3 43
-1 43 16 0 27 -70 65 -120 65 -22 0 -55 -8 -73 -17z m98 -23 c13 -9 13 -10 -1
-10 -8 0 -28 -14 -45 -31 -55 -57 -32 -160 41 -189 19 -7 18 -8 -6 -15 -38 -9
-95 18 -119 57 -41 68 -11 160 60 185 43 15 51 15 70 3z"/>
<path d="M438 1062 c-21 -38 -35 -72 -31 -76 15 -15 30 -3 51 39 12 25 25 45
29 45 7 0 103 -172 103 -184 0 -4 -11 -6 -23 -6 -13 0 -26 -3 -30 -6 -3 -4 12
-42 33 -85 22 -43 40 -83 40 -89 0 -5 -12 -10 -26 -10 -40 0 -23 -25 20 -28
70 -6 71 -1 21 98 l-45 90 30 0 c18 0 30 5 30 13 -1 23 -137 262 -151 265 -8
1 -29 -25 -51 -66z"/>
<path d="M282 430 c-140 -162 -172 -205 -172 -229 0 -26 -4 -30 -32 -33 -18
-2 -33 -7 -33 -13 0 -14 329 -21 813 -17 338 2 392 4 392 17 0 8 -7 15 -15 15
-10 0 -15 10 -15 33 0 27 -24 59 -171 222 -94 105 -176 193 -183 197 -6 4
-101 8 -211 7 l-200 0 -173 -199z m708 9 c74 -83 141 -159 149 -170 13 -19 9
-19 -160 -18 l-174 0 -125 140 c-69 77 -136 153 -149 169 l-24 30 174 0 174
-1 135 -150z m-321 -86 l92 -102 -68 -3 c-52 -2 -68 -6 -68 -18 0 -12 17 -16
83 -18 72 -2 83 -5 80 -20 -3 -15 -21 -17 -156 -20 l-152 -3 0 197 0 196 48
-54 c27 -29 90 -99 141 -155z m-229 7 l0 -190 -145 0 c-137 0 -145 1 -145 20
0 17 8 19 83 22 65 2 82 6 82 18 0 11 -17 16 -69 20 l-69 5 129 148 c71 81
130 147 131 147 2 0 3 -85 3 -190z m740 -170 c0 -19 -7 -20 -180 -20 -173 0
-180 1 -180 20 0 19 7 20 180 20 173 0 180 -1 180 -20z"/>
</g>
</svg>
