<?xml version="1.0" standalone="no"?>
<!DOCTYPE svg PUBLIC "-//W3C//DTD SVG 20010904//EN"
 "http://www.w3.org/TR/2001/REC-SVG-20010904/DTD/svg10.dtd">
<svg version="1.0" xmlns="http://www.w3.org/2000/svg"
 width="64.000000pt" height="64.000000pt" viewBox="0 0 64.000000 64.000000"
 preserveAspectRatio="xMidYMid meet">

<g transform="translate(0.000000,64.000000) scale(0.100000,-0.100000)"
fill="#ffffff" stroke="none">
<path d="M220 583 c-66 -24 -144 -107 -164 -173 -33 -112 -11 -206 67 -284 66
-66 137 -91 236 -84 138 10 231 100 231 223 0 42 -2 46 -21 43 -17 -2 -25 -14
-34 -50 -6 -25 -20 -59 -31 -75 l-19 -28 -5 34 c-7 49 -24 48 -59 -3 -36 -51
-56 -61 -116 -51 -125 18 -204 171 -146 283 25 48 55 76 111 101 115 52 259
-7 301 -124 13 -34 29 -47 29 -22 0 26 -48 114 -80 145 -18 18 -51 42 -74 54
-55 28 -164 34 -226 11z"/>
<path d="M270 461 c-7 -15 -5 -25 9 -42 16 -20 21 -21 35 -10 19 16 21 42 4
59 -17 17 -36 15 -48 -7z"/>
<path d="M358 455 c-8 -19 -8 -28 2 -40 17 -21 27 -19 46 10 13 20 14 28 4 40
-18 22 -39 18 -52 -10z"/>
<path d="M203 423 c-16 -6 -17 -35 -1 -51 7 -7 23 -12 36 -12 19 0 23 4 20 26
-3 27 -31 45 -55 37z"/>
<path d="M442 419 c-17 -6 -22 -15 -20 -31 6 -42 68 -30 68 12 0 23 -19 30
-48 19z"/>
<path d="M282 367 c-29 -31 -54 -94 -47 -118 7 -21 24 -24 72 -10 20 6 47 5
73 -1 34 -9 44 -8 57 5 14 14 15 22 5 56 -24 80 -113 118 -160 68z"/>
</g>
</svg>
