<?xml version="1.0" standalone="no"?>
<!DOCTYPE svg PUBLIC "-//W3C//DTD SVG 20010904//EN"
 "http://www.w3.org/TR/2001/REC-SVG-20010904/DTD/svg10.dtd">
<svg version="1.0" xmlns="http://www.w3.org/2000/svg"
 width="128.000000pt" height="128.000000pt" viewBox="0 0 128.000000 128.000000"
 preserveAspectRatio="xMidYMid meet">

<g transform="translate(0.000000,128.000000) scale(0.100000,-0.100000)"
fill="#bbbcbd" stroke="none">
<path d="M114 1259 c-46 -13 -91 -69 -99 -121 -3 -24 -5 -264 -3 -535 3 -478
4 -492 24 -519 11 -15 33 -37 48 -48 27 -21 38 -21 556 -21 518 0 529 0 556
21 15 11 37 33 48 48 21 27 21 38 21 556 0 518 0 529 -21 556 -11 15 -33 37
-48 48 -27 21 -39 21 -539 23 -292 1 -526 -2 -543 -8z m1053 -92 c17 -17 18
-51 18 -527 0 -476 -1 -510 -18 -527 -17 -17 -51 -18 -527 -18 -476 0 -510 1
-527 18 -17 16 -18 53 -21 511 -2 316 1 503 8 520 5 15 20 31 32 36 13 5 234
8 520 7 463 -2 499 -3 515 -20z"/>
<path d="M500 1141 c-14 -28 -15 -27 40 -85 l49 -52 -170 -320 c-272 -508
-254 -472 -234 -494 17 -19 34 -20 455 -20 421 0 438 1 455 20 20 22 38 -14
-234 494 l-170 320 49 52 c55 58 54 57 40 85 -17 30 -40 23 -92 -28 l-48 -47
-48 47 c-52 51 -75 58 -92 28z m277 -469 c72 -136 153 -287 178 -335 l47 -88
-88 3 -89 3 -80 155 c-71 137 -83 155 -105 155 -22 0 -34 -18 -105 -155 l-80
-155 -89 -3 -88 -3 47 88 c236 444 311 583 315 583 3 0 64 -111 137 -248z
m-89 -327 l42 -85 -90 0 -90 0 42 85 c23 47 45 85 48 85 3 0 25 -38 48 -85z"/>
</g>
</svg>
